<svg xmlns="http://www.w3.org/2000/svg" xml:space="preserve" viewBox="0 0 512 512"><path d="M159 267v111c0 8 6 14 14 14h166c8 0 14-6 14-14V267H159z"/><path d="M256 0a256 256 0 1 0 0 512 256 256 0 0 0 0-512zm47 82h25c-30 35 29 71 0 107h-25c30-36-29-72 0-107zm-59 0h24c-29 35 30 71 0 107h-24c29-36-30-72 0-107zm-60 0h25c-30 35 29 71 0 107h-25c30-36-29-72 0-107zm228 246-32 8v42c0 22-19 41-41 41H173c-22 0-41-19-41-41v-42l-30-8a18 18 0 1 1 9-34l21 5v-29l1-6a22 22 0 0 1 10-41h226a22 22 0 0 1 10 41l1 6v30l23-6a18 18 0 1 1 9 34z"/></svg>
